<svg width="51" height="51" viewBox="0 0 51 51" fill="none" xmlns="http://www.w3.org/2000/svg">
<path d="M47.5 25.0145C46.837 25.0145 46.2011 25.2779 45.7322 25.7467C45.2634 26.2156 45 26.8515 45 27.5145V42.5145C45 43.1775 44.7366 43.8134 44.2678 44.2823C43.7989 44.7511 43.163 45.0145 42.5 45.0145H7.5C6.83696 45.0145 6.20107 44.7511 5.73223 44.2823C5.26339 43.8134 5 43.1775 5 42.5145V7.5145C5 6.85145 5.26339 6.21557 5.73223 5.74673C6.20107 5.27789 6.83696 5.0145 7.5 5.0145H22.5C23.163 5.0145 23.7989 4.7511 24.2678 4.28226C24.7366 3.81342 25 3.17754 25 2.5145C25 1.85145 24.7366 1.21557 24.2678 0.746729C23.7989 0.277888 23.163 0.0144958 22.5 0.0144958H7.5C5.51088 0.0144958 3.60322 0.804672 2.1967 2.2112C0.790177 3.61772 0 5.52537 0 7.5145V42.5145C0 44.5036 0.790177 46.4113 2.1967 47.8178C3.60322 49.2243 5.51088 50.0145 7.5 50.0145H42.5C44.4891 50.0145 46.3968 49.2243 47.8033 47.8178C49.2098 46.4113 50 44.5036 50 42.5145V27.5145C50 26.8515 49.7366 26.2156 49.2678 25.7467C48.7989 25.2779 48.163 25.0145 47.5 25.0145ZM10 26.9145V37.5145C10 38.1775 10.2634 38.8134 10.7322 39.2823C11.2011 39.7511 11.837 40.0145 12.5 40.0145H23.1C23.429 40.0164 23.7552 39.9533 24.0598 39.8289C24.3644 39.7045 24.6414 39.5212 24.875 39.2895L42.175 21.9645L49.275 15.0145C49.5093 14.7821 49.6953 14.5056 49.8222 14.2009C49.9492 13.8963 50.0145 13.5695 50.0145 13.2395C50.0145 12.9095 49.9492 12.5827 49.8222 12.2781C49.6953 11.9734 49.5093 11.6969 49.275 11.4645L38.675 0.739496C38.4426 0.505175 38.1661 0.319189 37.8614 0.192267C37.5568 0.0653456 37.23 0 36.9 0C36.57 0 36.2432 0.0653456 35.9386 0.192267C35.6339 0.319189 35.3574 0.505175 35.125 0.739496L28.075 7.8145L10.725 25.1395C10.4933 25.3731 10.31 25.6501 10.1856 25.9547C10.0612 26.2593 9.9981 26.5855 10 26.9145ZM36.9 6.0395L43.975 13.1145L40.425 16.6645L33.35 9.5895L36.9 6.0395ZM15 27.9395L29.825 13.1145L36.9 20.1895L22.075 35.0145H15V27.9395Z" fill="white"/>
</svg>
