<svg width="49" height="49" viewBox="0 0 49 49" fill="none" xmlns="http://www.w3.org/2000/svg">
<path d="M26.95 22.05V12.25H22.05V22.05H12.25V26.95H22.05V36.75H26.95V26.95H36.75V22.05H26.95ZM24.5 49C18.0022 49 11.7705 46.4188 7.17588 41.8241C2.58124 37.2295 0 30.9978 0 24.5C0 18.0022 2.58124 11.7705 7.17588 7.17588C11.7705 2.58124 18.0022 0 24.5 0C30.9978 0 37.2295 2.58124 41.8241 7.17588C46.4188 11.7705 49 18.0022 49 24.5C49 30.9978 46.4188 37.2295 41.8241 41.8241C37.2295 46.4188 30.9978 49 24.5 49Z" fill="white"/>
</svg>
